<svg xmlns="http://www.w3.org/2000/svg" viewBox="0 0 100 100" style="transition: transform 300ms ease-in-out, filter 0.3s ease-in-out; filter: brightness(1) drop-shadow(rgba(0, 0, 0, 0.4) 0px 4px 6px); --hover-scale: 1.05;" class="w-full h-full cursor-pointer transform-gpu icon-hover-effect"><defs><linearGradient id="mainGradient" x1="0%" y1="50%" x2="100%" y2="50%"><stop offset="0%" stop-color="#CE412B"></stop><stop offset="100%" stop-color="#24C8DB"></stop></linearGradient><filter id="combinedFilter" x="-50%" y="-50%" width="200%" height="200%"><feGaussianBlur in="SourceAlpha" stdDeviation="3" result="blur"></feGaussianBlur><feOffset in="blur" dx="1" dy="2" result="offsetBlur"></feOffset><feComponentTransfer in="offsetBlur" result="shadowAlpha"><feFuncA type="linear" slope="0.4"></feFuncA></feComponentTransfer><feColorMatrix in="shadowAlpha" type="matrix" values="0 0 0 0 0 0 0 0 0 0 0 0 0 0 0 0 0 0 1 0" result="tintedShadow"></feColorMatrix><feColorMatrix in="SourceGraphic" type="saturate" values="1.2" result="saturatedGraphic"></feColorMatrix><feMerge><feMergeNode in="tintedShadow"></feMergeNode><feMergeNode in="saturatedGraphic"></feMergeNode></feMerge></filter><filter id="textGlow" x="-50%" y="-50%" width="200%" height="200%"><feGaussianBlur in="SourceAlpha" stdDeviation="2" result="blur"></feGaussianBlur><feFlood flood-color="#ffffff" result="glowColor"></feFlood><feComposite in="glowColor" in2="blur" operator="in" result="glow"></feComposite><feMerge><feMergeNode in="glow"></feMergeNode><feMergeNode in="SourceGraphic"></feMergeNode></feMerge></filter><filter id="glassFilter"><feGaussianBlur in="SourceGraphic" stdDeviation="4"></feGaussianBlur></filter><clipPath id="iconClip"><rect x="10" y="10" width="80" height="80" rx="20"></rect></clipPath></defs><rect x="10" y="10" width="80" height="80" rx="20" fill="url(#mainGradient)" filter="url(#combinedFilter)"></rect><path d="M50 15 A35 35 0 1 1 50 85 A35 35 0 1 1 50 15" fill="white" opacity="0.15" clip-path="url(#iconClip)" pointer-events="none"></path><g filter="drop-shadow(0 2px 4px rgba(0,0,0,0.2))"><g fill="white"><path d="M35 25 L60 25 L75 40 L75 75 L35 75 Z" opacity="0.8"></path><path d="M60 25 L60 40 L75 40 Z" fill="#FFD54F"></path><text x="50" y="60" text-anchor="middle" font-size="32" fill="#CE412B" style="font-family: Inter, sans-serif; font-weight: 900; font-style: normal;">E</text></g></g><path d="M82 78 Q85 75 88 78 Q91 81 88 84 Q85 87 82 84" fill="#FFD54F" opacity="0.4"></path></svg>